<svg xmlns:xlink="http://www.w3.org/1999/xlink" xmlns="http://www.w3.org/2000/svg" width="64" height="64" viewBox="0 0 64 64" fill="none">
<path d="M55.0329 6.33008C57.11 6.33008 58.8496 7.90258 59.0586 9.96895L63.9788 58.6C64.2198 60.9817 62.3517 63.0507 59.958 63.0535H49.1641L55.0329 6.33008Z" fill="#6354B1"/>
<path d="M55.0318 6.33008H8.96683C6.88983 6.33008 5.15021 7.90258 4.94121 9.96895L0.0209587 58.6002C-0.220041 60.9818 1.64808 63.0508 4.04183 63.0537H50.4843C52.5731 63.0537 54.3184 61.4638 54.5129 59.3842L59.0604 10.7531C59.2823 8.37995 57.4152 6.33008 55.0318 6.33008Z" fill="#8379C1"/>
<path d="M25.1645 16.0778H9.64095C8.97945 16.0778 8.42532 16.5786 8.3587 17.2368L4.91895 50.3762L5.49557 57.2368C5.4182 57.9963 6.0137 57.3676 6.77707 57.3675C7.25957 57.3675 20.0183 57.3683 20.0183 57.3683C20.6613 57.3683 21.1987 58.1676 21.2586 57.5273L23.2153 50.5846L26.4047 17.4394C26.4731 16.7088 25.8982 16.0778 25.1645 16.0778Z" fill="#F8F7FF"/>
<path d="M49.071 13.0776C48.3336 13.0776 47.7075 13.0772 47.174 13.0772C45.5528 13.0772 44.2344 11.7588 44.2344 10.1388V6.32947H46.1675V10.139C46.1675 10.6931 46.6185 11.1442 47.174 11.1442C47.7075 11.1442 49.6045 13.0776 49.071 13.0776Z" fill="#6354B1"/>
<path d="M13.9704 13.0776C13.233 13.0776 12.6069 13.0772 12.0734 13.0772C10.4522 13.0772 9.13379 11.7588 9.13379 10.1388V6.32947H11.0669V10.139C11.0669 10.6931 11.5179 11.1442 12.0734 11.1442C12.6069 11.1442 14.5039 13.0776 13.9704 13.0776Z" fill="#6354B1"/>
<path d="M15.4594 6.33004V3.88554C15.4594 3.33079 15.0082 2.87941 14.4533 2.87941H14.0094C13.4547 2.87941 13.0033 3.33066 13.0033 3.88554V10.1384C13.0033 10.6932 13.4546 11.1445 14.0094 11.1445C14.5432 11.1445 14.9759 11.5772 14.9759 12.111C14.9759 12.6449 14.5432 13.0775 14.0094 13.0775C12.3888 13.0775 11.0703 11.759 11.0703 10.1384V3.88554C11.0703 2.26491 12.3888 0.946411 14.0094 0.946411H14.4533C16.0739 0.946411 17.3924 2.26491 17.3924 3.88554V6.33004H15.4594Z" fill="#272D37"/>
<path d="M50.5717 6.33004V3.88554C50.5717 3.33079 50.1205 2.87941 49.5656 2.87941H49.1217C48.567 2.87941 48.1156 3.33066 48.1156 3.88554V10.1384C48.1156 10.6932 48.5669 11.1445 49.1217 11.1445C49.6555 11.1445 50.0882 11.5772 50.0882 12.111C50.0882 12.6449 49.6555 13.0775 49.1217 13.0775C47.5011 13.0775 46.1826 11.759 46.1826 10.1384V3.88554C46.1826 2.26491 47.5011 0.946411 49.1217 0.946411H49.5656C51.1862 0.946411 52.5047 2.26491 52.5047 3.88554V6.33004H50.5717Z" fill="#272D37"/>
<path d="M5.48849 58.6563C5.97099 58.6563 21.3073 58.6571 21.3073 58.6571C21.9503 58.6571 22.4876 58.1676 22.5475 57.5274L22.7191 55.7439L11.682 44.7067C11.38 44.4047 10.8905 44.4047 10.5885 44.7067L4.91911 50.3762L4.20699 57.2369C4.12949 57.9964 4.72499 58.6564 5.48849 58.6563Z" fill="#00C374"/>
<path d="M16.6797 49.7047L18.9566 47.4279C19.2579 47.1265 19.7466 47.1259 20.0487 47.4265L23.2234 50.5854L22.7188 55.7439L16.6797 49.7047Z" fill="#DEDBEE"/>
<path d="M16.6793 39.3884C17.7956 39.3884 18.7005 38.4836 18.7005 37.3673C18.7005 36.2511 17.7956 35.3462 16.6793 35.3462C15.5631 35.3462 14.6582 36.2511 14.6582 37.3673C14.6582 38.4836 15.5631 39.3884 16.6793 39.3884Z" fill="#FFB129"/>
<path d="M30.3958 26.2139C29.9662 26.2139 29.5733 25.9125 29.463 25.4974C29.3514 25.0766 29.5447 24.6149 29.9264 24.4043C30.5923 24.037 31.4517 24.608 31.3544 25.3658C31.2938 25.8395 30.8748 26.2139 30.3958 26.2139Z" fill="#00C374"/>
<path d="M28.0761 49.2256C27.6625 49.2256 27.2861 48.9538 27.1568 48.5609C27.0291 48.1735 27.1656 47.7369 27.4898 47.4899C28.1763 46.9666 29.176 47.579 29.0269 48.4271C28.9469 48.8825 28.5386 49.2256 28.0761 49.2256ZM28.5404 44.6234C28.1268 44.6234 27.7504 44.3515 27.621 43.9586C27.4934 43.5712 27.6299 43.1346 27.954 42.8876C28.6406 42.3645 29.6403 42.9766 29.4911 43.8247C29.411 44.2802 29.0028 44.6234 28.5404 44.6234ZM29.0045 40.0211C28.5941 40.0211 28.2199 39.7535 28.0879 39.3649C27.9569 38.9789 28.0891 38.5406 28.4108 38.2906C29.0928 37.7606 30.0984 38.3652 29.9566 39.2146C29.88 39.6736 29.47 40.0211 29.0045 40.0211ZM29.4688 35.4189C29.0584 35.4189 28.6841 35.1512 28.5521 34.7626C28.421 34.3765 28.5535 33.9387 28.8755 33.689C29.5576 33.1597 30.5629 33.7622 30.421 34.6124C30.3443 35.0714 29.9343 35.4189 29.4688 35.4189ZM29.933 30.8167C29.5194 30.8167 29.143 30.5448 29.0136 30.152C28.886 29.7646 29.0225 29.3275 29.3464 29.0803C30.0328 28.5567 31.0326 29.1708 30.8838 30.0182C30.8036 30.4736 30.3954 30.8167 29.933 30.8167Z" fill="#DEDBEE"/>
<path d="M34.7076 26.214C34.2729 26.214 33.8769 25.9069 33.7714 25.4851C33.6662 25.0643 33.8616 24.6071 34.2441 24.4006C34.9023 24.0451 35.7491 24.6 35.6683 25.3477C35.6162 25.8297 35.1939 26.214 34.7076 26.214Z" fill="#00C374"/>
<path d="M32.3867 49.2256C31.9731 49.2256 31.5967 48.9538 31.4673 48.5609C31.3397 48.1735 31.4762 47.7368 31.8003 47.4899C32.4868 46.9668 33.4865 47.579 33.3375 48.4271C33.2575 48.8825 32.8492 49.2256 32.3867 49.2256ZM32.851 44.6234C32.4373 44.6234 32.0609 44.3515 31.9316 43.9586C31.8039 43.5712 31.9406 43.1346 32.2647 42.8876C32.9513 42.3646 33.9508 42.9766 33.8018 43.8247C33.7217 44.2802 33.3135 44.6234 32.851 44.6234ZM33.3152 40.0211C32.9048 40.0211 32.5306 39.7535 32.3986 39.3649C32.2676 38.9789 32.3998 38.5406 32.7214 38.2906C33.4035 37.7606 34.4091 38.3652 34.2673 39.2146C34.1907 39.6736 33.7807 40.0211 33.3152 40.0211ZM33.7793 35.4189C33.369 35.4189 32.9947 35.1512 32.8627 34.7626C32.7316 34.3765 32.8641 33.9387 33.186 33.689C33.8681 33.1597 34.8733 33.7622 34.7315 34.6124C34.6548 35.0714 34.2448 35.4189 33.7793 35.4189ZM34.2436 30.8167C33.83 30.8167 33.4536 30.5448 33.3242 30.152C33.1966 29.7646 33.3331 29.3275 33.657 29.0803C34.3433 28.5567 35.3432 29.1708 35.1943 30.0182C35.1143 30.4736 34.7061 30.8167 34.2436 30.8167Z" fill="#DEDBEE"/>
<path d="M39.0182 26.214C38.5883 26.214 38.1947 25.9121 38.0849 25.4962C37.9727 25.071 38.1706 24.6077 38.5577 24.3985C39.2153 24.043 40.0589 24.6028 39.979 25.3476C39.9274 25.8297 39.5042 26.214 39.0182 26.214Z" fill="#00C374"/>
<path d="M36.6973 49.2256C36.2787 49.2256 35.8993 48.9474 35.7738 48.5481C35.6516 48.1591 35.7941 47.7238 36.1217 47.4814C36.8143 46.9691 37.8051 47.5928 37.6461 48.438C37.5612 48.8884 37.156 49.2256 36.6973 49.2256ZM37.1616 44.6234C36.748 44.6234 36.3716 44.3515 36.2422 43.9586C36.1146 43.5714 36.251 43.1346 36.575 42.8876C37.2615 42.3644 38.2615 42.9765 38.1124 43.8247C38.0324 44.2802 37.6241 44.6234 37.1616 44.6234ZM37.6259 40.0211C37.2155 40.0211 36.8412 39.7535 36.7092 39.3649C36.5782 38.979 36.7103 38.541 37.0319 38.2914C37.714 37.7617 38.7199 38.3644 38.578 39.2146C38.5014 39.6736 38.0914 40.0211 37.6259 40.0211ZM38.09 35.4189C37.6796 35.4189 37.3054 35.1512 37.1734 34.7626C37.0422 34.3765 37.1747 33.9387 37.4966 33.689C38.1787 33.1597 39.184 33.7622 39.0421 34.6124C38.9655 35.0714 38.5555 35.4189 38.09 35.4189ZM38.5544 30.8167C38.1407 30.8167 37.7644 30.5448 37.6349 30.152C37.5072 29.7646 37.6437 29.3275 37.9676 29.0803C38.654 28.5567 39.6539 29.1708 39.505 30.0182C39.425 30.4735 39.0167 30.8167 38.5544 30.8167Z" fill="#DEDBEE"/>
<path d="M47.6394 26.2139C47.2128 26.2139 46.8228 25.9163 46.7079 25.5057C46.5899 25.0835 46.7868 24.6148 47.1701 24.4032C47.8316 24.0381 48.689 24.6022 48.5996 25.3562C48.543 25.834 48.122 26.2139 47.6394 26.2139Z" fill="#00C374"/>
<path d="M45.3193 49.2256C44.9057 49.2256 44.5293 48.9538 44.3999 48.5609C44.2723 48.1735 44.4088 47.7368 44.7328 47.4899C45.4193 46.9666 46.4191 47.5789 46.2701 48.4271C46.1901 48.8825 45.7818 49.2256 45.3193 49.2256ZM45.7836 44.6234C45.3699 44.6234 44.9936 44.3515 44.8642 43.9586C44.7366 43.5712 44.8731 43.1346 45.1972 42.8876C45.8837 42.3645 46.8835 42.9766 46.7343 43.8247C46.6543 44.2802 46.2461 44.6234 45.7836 44.6234ZM46.2478 40.0211C45.8374 40.0211 45.4632 39.7535 45.3312 39.3649C45.2002 38.9789 45.3324 38.5406 45.6541 38.2906C46.3361 37.7606 47.3417 38.3652 47.2 39.2146C47.1233 39.6736 46.7133 40.0211 46.2478 40.0211ZM46.712 35.4189C46.3016 35.4189 45.9273 35.1512 45.7953 34.7626C45.6642 34.3765 45.7967 33.9387 46.1187 33.689C46.8008 33.1597 47.8061 33.7622 47.6642 34.6124C47.5875 35.0714 47.1775 35.4189 46.712 35.4189ZM47.1762 30.8167C46.7626 30.8167 46.3862 30.5448 46.2568 30.152C46.1292 29.7646 46.2657 29.3275 46.5896 29.0803C47.276 28.5567 48.2758 29.1708 48.127 30.0182C48.047 30.4736 47.6387 30.8167 47.1762 30.8167Z" fill="#DEDBEE"/>
<path d="M51.9504 26.2139C51.5207 26.2139 51.1266 25.9119 51.0166 25.4962C50.9042 25.0715 51.1031 24.6074 51.4896 24.3987C52.1462 24.0442 52.9938 24.602 52.9113 25.3474C52.8582 25.8291 52.4369 26.2139 51.9504 26.2139Z" fill="#00C374"/>
<path d="M49.6299 49.2256C49.2113 49.2256 48.8319 48.9473 48.7064 48.5481C48.5842 48.1589 48.7268 47.7237 49.0546 47.4813C49.7472 46.9692 50.7377 47.5927 50.5787 48.4379C50.4938 48.8883 50.0886 49.2256 49.6299 49.2256ZM50.0941 44.6233C49.6804 44.6233 49.3041 44.3514 49.1747 43.9586C49.0471 43.5712 49.1836 43.1346 49.5077 42.8876C50.1943 42.3644 51.1938 42.9766 51.0448 43.8247C50.9648 44.2802 50.5566 44.6233 50.0941 44.6233ZM50.5583 40.021C50.1479 40.021 49.7737 39.7534 49.6417 39.3648C49.5107 38.9789 49.6428 38.5409 49.9646 38.2913C50.6468 37.7618 51.6524 38.3643 51.5106 39.2145C51.4338 39.6735 51.0238 40.021 50.5583 40.021ZM51.0226 35.4188C50.6122 35.4188 50.2379 35.1512 50.1059 34.7625C49.9748 34.3764 50.1073 33.9387 50.4292 33.6889C51.1113 33.1597 52.1166 33.7622 51.9747 34.6123C51.8981 35.0713 51.4881 35.4188 51.0226 35.4188ZM51.4868 30.8167C51.0732 30.8167 50.6968 30.5448 50.5673 30.1519C50.4397 29.7647 50.5762 29.3274 50.9001 29.0803C51.5864 28.5565 52.5863 29.1708 52.4374 30.0182C52.3574 30.4734 51.9492 30.8167 51.4868 30.8167Z" fill="#DEDBEE"/>
<path d="M43.3288 26.2139C42.8989 26.2139 42.5071 25.9127 42.3952 25.4979C42.2824 25.079 42.4762 24.618 42.8543 24.406C43.5121 24.037 44.3702 24.5954 44.2895 25.3475C44.2378 25.8295 43.8148 26.2139 43.3288 26.2139Z" fill="#00C374"/>
<path d="M41.0088 49.2256C40.5951 49.2256 40.2188 48.9538 40.0894 48.5609C39.9618 48.1736 40.0983 47.7368 40.4223 47.4899C41.1088 46.9666 42.1087 47.5789 41.9597 48.4271C41.8795 48.8825 41.4713 49.2256 41.0088 49.2256ZM41.473 44.6234C41.0594 44.6234 40.683 44.3515 40.5536 43.9586C40.426 43.5714 40.5625 43.1346 40.8865 42.8876C41.573 42.3644 42.5729 42.9765 42.4238 43.8247C42.3438 44.2802 41.9354 44.6234 41.473 44.6234ZM41.9373 40.0211C41.5269 40.0211 41.1526 39.7535 41.0206 39.3649C40.8896 38.9789 41.0219 38.5406 41.3435 38.2906C42.0255 37.7606 43.0312 38.3652 42.8894 39.2146C42.8128 39.6736 42.4027 40.0211 41.9373 40.0211ZM42.4014 35.4189C41.991 35.4189 41.6168 35.1512 41.4848 34.7626C41.3538 34.3767 41.486 33.9387 41.8077 33.689C42.4898 33.1594 43.4955 33.7621 43.3535 34.6124C43.2769 35.0714 42.8669 35.4189 42.4014 35.4189ZM42.8657 30.8167C42.452 30.8167 42.0757 30.5448 41.9463 30.152C41.8187 29.7646 41.9552 29.3275 42.279 29.0803C42.9654 28.5567 43.9653 29.1708 43.8164 30.0182C43.7364 30.4736 43.3282 30.8167 42.8657 30.8167Z" fill="#DEDBEE"/>
</svg>